<?xml version="1.0" encoding="UTF-8"?>
<!DOCTYPE svg PUBLIC "-//W3C//DTD SVG 1.1//EN" "http://www.w3.org/Graphics/SVG/1.1/DTD/svg11.dtd">
<!-- Creator: CorelDRAW X8 -->
<svg xmlns="http://www.w3.org/2000/svg" xml:space="preserve" width="100mm" height="100mm" version="1.1" style="shape-rendering:geometricPrecision; text-rendering:geometricPrecision; image-rendering:optimizeQuality; fill-rule:evenodd; clip-rule:evenodd"
viewBox="0 0 10000 10000"
 xmlns:xlink="http://www.w3.org/1999/xlink">
 <defs>
  <style type="text/css">
   <![CDATA[
    .str0 {stroke:#2B2A29;stroke-width:7.62}
    .fil0 {fill:#372228}
    .fil1 {fill:#CDDC39}
   ]]>
  </style>
 </defs>
 <g id="Слой_x0020_1">
  <metadata id="CorelCorpID_0Corel-Layer"/>
  <path class="fil0" d="M5004 2782c1199,0 2170,972 2170,2170 0,1321 -1077,1573 -1077,2495l0 510 -1093 0 -1092 0 0 -510c0,-922 -1078,-1291 -1078,-2495 0,-1198 972,-2170 2170,-2170z"/>
  <path class="fil1 str0" d="M3893 5605c0,-1035 840,-1875 1875,-1875 20,0 41,0 61,1 -231,-156 -510,-247 -810,-247 -799,0 -1447,647 -1447,1446 0,354 127,679 339,930 -12,-83 -18,-168 -18,-255z"/>
  <path class="fil0" d="M4191 9563l270 0c57,247 280,432 545,432 266,0 488,-185 545,-432l271 0c153,0 279,-126 279,-279l0 -558c0,-153 -126,-279 -279,-279l-1631 0c-154,0 -279,126 -279,279l0 558c0,153 125,279 279,279z"/>
  <path class="fil0" d="M8419 4657l1276 0c168,0 306,138 306,307l0 51c0,169 -138,307 -306,307l-1276 0c-169,0 -307,-138 -307,-307l0 -51c0,-169 138,-307 307,-307z"/>
  <path class="fil0" d="M7184 2340l902 -902c119,-119 315,-119 434,0l36 36c119,119 119,314 0,434l-903 902c-119,119 -314,119 -433,0l-36 -36c-120,-119 -120,-314 0,-434z"/>
  <path class="fil0" d="M4671 1577l0 -1275c0,-169 138,-307 307,-307l50 0c169,0 307,138 307,307l0 1275c0,169 -138,307 -307,307l-50 0c-169,0 -307,-138 -307,-307z"/>
  <path class="fil0" d="M2355 2826l-902 -902c-120,-119 -120,-314 0,-434l36 -35c119,-120 314,-120 434,0l902 902c119,119 119,314 0,434l-36 35c-119,120 -315,120 -434,0z"/>
  <path class="fil0" d="M1594 5351l-1276 0c-168,0 -307,-139 -307,-307l0 -51c0,-169 139,-307 307,-307l1276 0c169,0 307,138 307,307l0 51c0,168 -138,307 -307,307z"/>
  <path class="fil0" d="M2852 7666l-902 902c-120,120 -315,120 -434,0l-36 -35c-119,-120 -119,-315 0,-434l902 -902c120,-120 315,-120 434,0l36 35c119,120 119,315 0,434z"/>
  <path class="fil0" d="M7692 7169l902 902c119,120 119,315 0,434l-36 36c-119,119 -315,119 -434,0l-902 -902c-119,-119 -119,-315 0,-434l36 -36c119,-119 314,-119 434,0z"/>
 </g>
</svg>
